<?xml version="1.0" encoding="UTF-8"?>
<svg version="1.1" xmlns="http://www.w3.org/2000/svg" width="728" height="342">
    <path
        d="M0 0 C0.54527344 0.46277344 1.09054687 0.92554688 1.65234375 1.40234375 C1.65234375 2.06234375 1.65234375 2.72234375 1.65234375 3.40234375 C2.36197266 2.82226562 2.36197266 2.82226562 3.0859375 2.23046875 C14.15757437 -6.48871506 24.73010509 -8.57193056 38.65234375 -7.59765625 C50.17629481 -5.27212885 59.6030594 2.25732621 66.65234375 11.40234375 C67.46316406 11.18578125 68.27398437 10.96921875 69.109375 10.74609375 C82.50015109 7.37891373 94.00215873 7.08599356 106.453125 13.9453125 C110.80248101 16.82948333 114.14188208 19.83032611 117.40234375 23.90234375 C118.98956806 25.90967881 118.98956806 25.90967881 120.65234375 27.40234375 C123.61782404 27.54838212 123.61782404 27.54838212 126.65234375 26.40234375 C133.79844091 25.56081493 139.28033012 27.23138893 145.65234375 30.40234375 C146.43996094 30.7684375 147.22757813 31.13453125 148.0390625 31.51171875 C156.41250419 36.1178225 159.91789455 44.54083462 162.52734375 53.359375 C165.98756949 71.309296 163.58990369 90.93992396 162.77734375 109.08984375 C162.73822876 109.98729309 162.69911377 110.88474243 162.65881348 111.80938721 C162.2154608 121.78892324 161.60960717 131.73955075 160.69140625 141.6875 C160.57697678 142.95638313 160.57697678 142.95638313 160.4602356 144.25090027 C159.15719895 157.61937752 156.54409411 169.3539627 146.90234375 179.21484375 C140.79424163 183.32606633 134.14411426 186.51223568 126.65234375 185.40234375 C122.69234375 183.42234375 122.69234375 183.42234375 118.65234375 181.40234375 C118.65234375 149.06234375 118.65234375 116.72234375 118.65234375 83.40234375 C117.66234375 98.58234375 116.67234375 113.76234375 115.65234375 129.40234375 C111.62426715 172.07478026 111.62426715 172.07478026 108.65234375 178.40234375 C105.82967028 180.57955324 103.06306115 181.43972007 99.65234375 182.40234375 C98.60820312 182.76972656 97.5640625 183.13710937 96.48828125 183.515625 C84.14895712 187.72024247 76.50937817 187.05563494 64.65234375 181.40234375 C62.64167584 180.08515267 60.6401789 178.75374643 58.65234375 177.40234375 C58.83192627 175.87420044 58.83192627 175.87420044 59.01513672 174.31518555 C60.51764181 161.30247618 61.71797655 148.27069965 62.77734375 135.21484375 C62.86705444 134.11514252 62.95676514 133.01544128 63.04919434 131.88241577 C64.71826766 111.02484435 65.13142173 90.31409746 64.65234375 69.40234375 C64.63365234 70.07958496 64.61496094 70.75682617 64.59570312 71.45458984 C63.98041588 89.80764332 61.770692 107.71949383 58.83984375 125.83984375 C58.59016846 127.397565 58.59016846 127.397565 58.33544922 128.98675537 C57.34921856 135.09707132 56.29699578 141.19200159 55.19476318 147.28240967 C54.62473039 150.56117259 54.12574156 153.84683941 53.62744141 157.13720703 C53.2588543 159.32097965 52.88831019 161.50442303 52.515625 163.6875 C52.37722702 164.7037999 52.23882904 165.72009979 52.09623718 166.76719666 C51.57364223 169.635107 51.06540079 171.84959434 49.65234375 174.40234375 C41.05615486 180.23603006 28.52950274 180.61796628 18.60205078 179.0859375 C10.09159511 177.43240874 2.10764896 174.90659064 -5.34765625 170.40234375 C-5.98703125 170.10457031 -6.62640625 169.80679688 -7.28515625 169.5 C-8.97265625 168.52734375 -8.97265625 168.52734375 -11.34765625 165.40234375 C-12.71069083 153.54404917 -10.59651844 141.06010902 -9.38143921 129.2677002 C-8.79082361 123.52779315 -8.22487127 117.78547378 -7.66015625 112.04296875 C-7.54689499 110.89391052 -7.43363373 109.74485229 -7.31694031 108.56097412 C-6.24801898 97.60194919 -5.35385827 86.63261339 -4.53515625 75.65234375 C-4.44081802 74.38934448 -4.44081802 74.38934448 -4.34457397 73.10083008 C-4.00503817 68.53517639 -3.67263616 63.96906014 -3.34765625 59.40234375 C-7.26651414 81.77766051 -10.99008068 104.18497504 -14.70365906 126.59512329 C-15.24867909 129.87084675 -15.80028365 133.14541164 -16.35253906 136.41992188 C-16.98336208 140.16962347 -17.58364486 143.9213091 -18.14746094 147.68164062 C-18.27132172 148.47048645 -18.3951825 149.25933228 -18.52279663 150.07208252 C-18.84371694 152.1184029 -19.1498467 154.16702833 -19.45458984 156.21582031 C-20.45114579 159.77160167 -21.48084936 161.13644693 -24.34765625 163.40234375 C-36.45287965 169.76576524 -48.10601878 169.57085782 -60.97265625 165.58984375 C-69.37839375 162.41636505 -74.84512562 158.13927673 -79.09765625 150.08984375 C-82.21022771 140.69877101 -81.71949141 129.86227512 -80.6328125 120.1484375 C-80.54595184 119.35160553 -80.45909119 118.55477356 -80.36959839 117.73379517 C-79.08376897 106.48756792 -77.31667794 95.30475948 -75.57128906 84.12255859 C-74.97279748 80.2782509 -74.38641545 76.43222229 -73.80078125 72.5859375 C-71.81625381 59.70500368 -69.60844598 47.02172412 -66.34765625 34.40234375 C-65.87206767 32.39752145 -65.39795475 30.39234812 -64.92578125 28.38671875 C-59.21648556 5.3752388 -59.21648556 5.3752388 -50.55078125 -2.16015625 C-48.49105646 -3.35726126 -46.65182459 -3.98371666 -44.34765625 -4.59765625 C-43.31640625 -4.88898437 -42.28515625 -5.1803125 -41.22265625 -5.48046875 C-25.79557372 -9.30280393 -13.22781397 -8.88637759 0 0 Z "
        fill="#ffb91f" transform="translate(327.34765625,37.59765625)" />
    <path
        d="M0 0 C1.04728271 0.00563965 2.09456543 0.0112793 3.17358398 0.01708984 C24.94139873 0.35488646 47.70463993 7.34991584 63.3125 23.3125 C64.25 26.1875 64.25 26.1875 64.3125 28.3125 C60.5682178 31.82717999 56.36054493 32.48816198 51.5 33.546875 C50.62615662 33.74567764 49.75231323 33.94448029 48.85198975 34.14930725 C46.97856257 34.57462625 45.10415342 34.99563859 43.22888184 35.41275024 C40.30021318 36.06523742 37.37486958 36.73097383 34.45019531 37.40112305 C30.5553319 38.29354931 26.65989426 39.18334922 22.76367188 40.06982422 C15.52107466 41.71964628 8.28494901 43.38868208 1.0625 45.125 C-0.04609375 45.37797852 -1.1546875 45.63095703 -2.296875 45.89160156 C-9.84601968 47.72884605 -15.06791214 49.98491542 -20 56.25 C-24.45542003 65.10297745 -24.54490847 76.00001332 -21.6875 85.3125 C-18.30087498 94.69732654 -11.53355164 101.83178254 -2.6875 106.3125 C9.1594073 110.2614691 21.91249591 106.54824694 33.5625 103.5625 C34.24251068 103.3883255 34.92252136 103.214151 35.62313843 103.03469849 C43.6988011 100.94532903 51.68215853 98.6361839 59.60742188 96.02587891 C63.31991254 95.04682676 65.67250063 95.15431838 69.3125 96.3125 C71.14894733 99.98539465 71.0426016 103.38411749 70.3125 107.3125 C65.95750051 117.54309936 59.15907981 125.57275713 51.3125 133.3125 C50.71824219 133.90546875 50.12398437 134.4984375 49.51171875 135.109375 C34.53610939 148.93301441 14.16500509 156.32212254 -6.0234375 155.65234375 C-25.22544404 154.52775771 -38.03483092 145.93884895 -52.0703125 133.4921875 C-71.04105291 116.71690363 -90.66056734 109.64058676 -115.6875 107.3125 C-115.85232543 96.14786646 -115.33317049 85.07856589 -114.6875 73.9375 C-114.59078899 72.21877004 -114.49443264 70.50002009 -114.3984375 68.78125 C-114.16553442 64.62475883 -113.92787542 60.46856545 -113.6875 56.3125 C-113.03378418 56.16216309 -112.38006836 56.01182617 -111.70654297 55.85693359 C-85.10963607 49.66953992 -69.72946572 41.13232799 -51.32617188 21.09472656 C-36.98769343 5.50013588 -21.17910922 -0.12065904 0 0 Z "
        fill="#ffb91f" transform="translate(612.6875,66.6875)" />
    <path
        d="M0 0 C17.69440222 12.79752058 36.85872093 17.26199838 58.421875 17.7109375 C59.85778377 17.7503668 61.29366146 17.79094279 62.72950745 17.83259583 C66.45270446 17.93760542 70.17610724 18.02736141 73.89978027 18.11358643 C77.72185394 18.20491031 81.5435125 18.31115123 85.36523438 18.41601562 C92.82259397 18.61849964 100.28023612 18.80481846 107.73828125 18.98046875 C104.57228741 44.84114919 104.57228741 44.84114919 102.61328125 57.41796875 C102.44441406 58.54138672 102.27554688 59.66480469 102.1015625 60.82226562 C101.93785156 61.88380859 101.77414063 62.94535156 101.60546875 64.0390625 C101.39059814 65.43596313 101.39059814 65.43596313 101.17138672 66.86108398 C100.73828125 68.98046875 100.73828125 68.98046875 99.73828125 69.98046875 C96.62801429 70.03225858 93.53886335 70.02176073 90.4296875 69.97265625 C88.46419827 69.95509548 86.49870308 69.93819167 84.53320312 69.921875 C81.44440937 69.89130009 78.35592018 69.85631192 75.26733398 69.80908203 C58.2934302 69.56318353 41.51022814 69.94931075 25.73828125 76.98046875 C24.80113281 77.3775 23.86398438 77.77453125 22.8984375 78.18359375 C13.19778853 82.61963297 5.40115569 89.25991098 -2.7265625 96.03515625 C-18.00201223 108.46544988 -35.02270079 112.3303717 -54.26171875 110.98046875 C-71.93098087 108.73395997 -86.15339457 99.36587398 -97.05859375 85.734375 C-108.25560695 70.00661162 -110.88522999 53.10644967 -108.8671875 34.3046875 C-105.94630314 17.66506884 -96.31119007 4.15772698 -83.38671875 -6.39453125 C-55.60758409 -25.49620803 -25.1555406 -19.12431842 0 0 Z M-55.63671875 13.35546875 C-56.23452148 13.71398926 -56.83232422 14.07250977 -57.44824219 14.44189453 C-58.72467127 15.20914156 -59.99736923 15.98262409 -61.26660156 16.76171875 C-63.31305985 18.0118313 -65.37438868 19.23343922 -67.44140625 20.44921875 C-68.79850543 21.25074641 -70.15528479 22.05281585 -71.51171875 22.85546875 C-72.15544434 23.23622559 -72.79916992 23.61698242 -73.46240234 24.00927734 C-75.97784509 25.5177309 -78.17904258 26.89779258 -80.26171875 28.98046875 C-80.54733268 31.63413326 -80.71058226 34.1786832 -80.7734375 36.83984375 C-80.79195267 37.62184143 -80.81046783 38.40383911 -80.82954407 39.20953369 C-80.86161125 40.867119 -80.88724697 42.5248392 -80.90698242 44.18261719 C-80.93502862 45.87446774 -80.9827317 47.56611204 -81.05053711 49.25683594 C-81.78367078 58.78433781 -81.78367078 58.78433781 -78.49511719 67.29638672 C-76.14592115 68.8866195 -73.89580368 69.93851541 -71.26171875 70.98046875 C-69.87304165 71.76589292 -68.49467524 72.56991601 -67.12890625 73.39453125 C-65.80025959 74.13525824 -64.46954264 74.87228468 -63.13671875 75.60546875 C-61.8006589 76.34743597 -60.46472042 77.08962181 -59.12890625 77.83203125 C-58.48405273 78.18297852 -57.83919922 78.53392578 -57.17480469 78.89550781 C-55.88731501 79.62567679 -54.62407089 80.40014006 -53.38769531 81.21386719 C-49.8642267 83.55495079 -49.8642267 83.55495079 -45.79296875 83.48828125 C-44.95765625 82.99070312 -44.12234375 82.493125 -43.26171875 81.98046875 C-42.08522031 81.35176883 -40.90807996 80.72426937 -39.73046875 80.09765625 C-36.97533684 78.55639162 -34.24334157 76.97698002 -31.51171875 75.39453125 C-28.82485503 73.83942934 -26.12450698 72.40548931 -23.32421875 71.06640625 C-19.94000667 69.38017087 -17.01719781 67.61614437 -14.26171875 64.98046875 C-13.03825178 61.25289647 -13.50450564 58.07565925 -14.04443359 54.23779297 C-14.30978464 51.48112353 -14.26589923 48.78445244 -14.21875 46.015625 C-14.21188507 43.85807402 -14.20537763 41.70052187 -14.19921875 39.54296875 C-14.15595459 37.97869141 -14.15595459 37.97869141 -14.11181641 36.3828125 C-14.15077122 30.76129547 -14.15077122 30.76129547 -16.97607422 26.12963867 C-19.32954052 24.52419947 -21.71056468 23.24685523 -24.26171875 21.98046875 C-25.95729404 20.99973166 -27.64999321 20.014006 -29.33984375 19.0234375 C-31.0614744 18.06741078 -32.78545074 17.11559629 -34.51171875 16.16796875 C-35.383125 15.67876953 -36.25453125 15.18957031 -37.15234375 14.68554688 C-38.42078125 13.98655273 -38.42078125 13.98655273 -39.71484375 13.2734375 C-40.84647949 12.64731567 -40.84647949 12.64731567 -42.00097656 12.00854492 C-47.74707197 9.39549873 -50.27933807 10.0960833 -55.63671875 13.35546875 Z "
        fill="#ffb91f" transform="translate(136.26171875,102.01953125)" />
    <path
        d="M0 0 C4.95 0 9.9 0 15 0 C15.556875 1.44375 16.11375 2.8875 16.6875 4.375 C21.35566898 15.89852203 24.90005257 23.46611366 36.625 28.6875 C53.899776 35.36478249 67.28535673 35.38402504 84.25 28.25 C85.1575 27.8375 86.065 27.425 87 27 C87.680625 27.721875 88.36125 28.44375 89.0625 29.1875 C102.32611424 42.23066636 121.06790583 45.26868392 139 45.1875 C142.00156154 45.14979399 144.99919322 45.08301412 148 45 C151.33680424 54.21231604 152.70741355 62.63805344 149.0234375 72.05078125 C147.28480792 75.36214065 145.41015389 77.54152509 142 79 C135.80805355 80.13079873 129.8079646 78.78166152 123.7265625 77.5625 C114.86880307 75.96617475 105.98435737 75.51213822 97.0078125 75.15625 C96.28956802 75.12756332 95.57132355 75.09887665 94.83131409 75.06932068 C88.83269118 74.83416969 82.83316145 74.62651897 76.83343506 74.42181396 C72.33306359 74.26753812 67.83330761 74.10282047 63.33382797 73.92436218 C61.26044222 73.84620509 59.18697274 73.7829 57.11306763 73.72033691 C41.00135292 73.09022674 28.76792309 69.76542083 17.48046875 57.91796875 C5.80094177 44.17843071 -2.90275963 27.20215352 -2 9 C-1.51330382 5.90630513 -0.8212573 3.02838628 0 0 Z "
        fill="#ffb91f" transform="translate(222,180)" />
    <path
        d="M0 0 C0.66 0.33 1.32 0.66 2 1 C0.9375 3.5 0.9375 3.5 -1 6 C-4.5 6.5 -4.5 6.5 -8 6 C-9.9375 4.5 -9.9375 4.5 -11 3 C-10.67 2.34 -10.34 1.68 -10 1 C-9.278125 1.391875 -8.55625 1.78375 -7.8125 2.1875 C-4.94222864 3.37110847 -4.94222864 3.37110847 -2.3125 1.5625 C-1.549375 1.046875 -0.78625 0.53125 0 0 Z "
        fill="##ffb91f" transform="translate(95,182)" />
    <path
        d="M0 0 C0.99 0.33 1.98 0.66 3 1 C0.33333333 3.66666667 -2.33333333 6.33333333 -5 9 C-5.66 8.01 -6.32 7.02 -7 6 C-6.67 5.01 -6.34 4.02 -6 3 C-6 3.66 -6 4.32 -6 5 C-5.071875 4.154375 -4.14375 3.30875 -3.1875 2.4375 C-1.60546875 0.99609375 -1.60546875 0.99609375 0 0 Z "
        fill="##ffb91f" transform="translate(335,36)" />
    <path
        d="M0 0 C0.66 0.33 1.32 0.66 2 1 C1.34 2.65 0.68 4.3 0 6 C-1.98 5.34 -3.96 4.68 -6 4 C-4.03617993 2.49440461 -2.21736634 1.10868317 0 0 Z "
        fill="##ffb91f" transform="translate(308,207)" />
</svg>